<?xml version="1.0" encoding="UTF-8" standalone="no"?>
<!DOCTYPE svg PUBLIC "-//W3C//DTD SVG 1.1//EN"
 "http://www.w3.org/Graphics/SVG/1.1/DTD/svg11.dtd">
<!-- Generated by graphviz version 13.1.2 (20250808.2320)
 -->
<!-- Title: G Pages: 1 -->
<svg width="188pt" height="270pt"
 viewBox="0.00 0.00 188.00 270.00" xmlns="http://www.w3.org/2000/svg" xmlns:xlink="http://www.w3.org/1999/xlink">
<g id="graph0" class="graph" transform="scale(1 1) rotate(0) translate(4 266.02)">
<title>G</title><style>.edge>path:hover{stroke-width:8}</style>
<polygon fill="white" stroke="none" points="-4,4 -4,-266.02 184.19,-266.02 184.19,4 -4,4"/>
<!-- tradility -->
<g id="node1" class="node">
<title>tradility</title><style>.edge>path:hover{stroke-width:8}</style>
<polygon fill="blue" stroke="black" points="148.01,-113.01 94.01,-113.01 94.01,-77.01 148.01,-77.01 148.01,-113.01"/>
<text xml:space="preserve" text-anchor="middle" x="121.01" y="-90.76" font-family="Helvetica,sans-Serif" font-size="10.00" fill="white">tradility</text>
</g>
<!-- tradility___main__ -->
<g id="node2" class="node">
<title>tradility___main__</title><style>.edge>path:hover{stroke-width:8}</style>
<ellipse fill="#ac4949" stroke="black" cx="41.01" cy="-20.51" rx="41.01" ry="20.51"/>
<text xml:space="preserve" text-anchor="middle" x="41.01" y="-21.51" font-family="Helvetica,sans-Serif" font-size="10.00" fill="#ffffff">tradility.</text>
<text xml:space="preserve" text-anchor="middle" x="41.01" y="-11.01" font-family="Helvetica,sans-Serif" font-size="10.00" fill="#ffffff">__main__</text>
</g>
<!-- tradility_analyze -->
<g id="node3" class="node">
<title>tradility_analyze</title><style>.edge>path:hover{stroke-width:8}</style>
<polygon fill="blue" stroke="black" points="121.01,-185.01 67.01,-185.01 67.01,-149.01 121.01,-149.01 121.01,-185.01"/>
<text xml:space="preserve" text-anchor="middle" x="94.01" y="-168.01" font-family="Helvetica,sans-Serif" font-size="10.00" fill="white">tradility.</text>
<text xml:space="preserve" text-anchor="middle" x="94.01" y="-157.51" font-family="Helvetica,sans-Serif" font-size="10.00" fill="white">analyze</text>
</g>
<!-- tradility_analyze&#45;&gt;tradility -->
<g id="edge1" class="edge">
<title>tradility_analyze&#45;&gt;tradility</title><style>.edge>path:hover{stroke-width:8}</style>
<path fill="none" stroke="black" d="M100.69,-148.71C103.6,-141.16 107.08,-132.13 110.34,-123.69"/>
<polygon fill="blue" stroke="black" points="113.54,-125.12 113.87,-114.53 107.01,-122.6 113.54,-125.12"/>
</g>
<!-- tradility_cli -->
<g id="node4" class="node">
<title>tradility_cli</title><style>.edge>path:hover{stroke-width:8}</style>
<ellipse fill="#b83d3d" stroke="black" cx="41.01" cy="-95.01" rx="34.68" ry="18"/>
<text xml:space="preserve" text-anchor="middle" x="41.01" y="-90.76" font-family="Helvetica,sans-Serif" font-size="10.00" fill="#ffffff">tradility.cli</text>
</g>
<!-- tradility_analyze&#45;&gt;tradility_cli -->
<g id="edge2" class="edge">
<title>tradility_analyze&#45;&gt;tradility_cli</title><style>.edge>path:hover{stroke-width:8}</style>
<path fill="none" stroke="black" d="M80.91,-148.71C74.63,-140.42 66.99,-130.32 60.08,-121.2"/>
<polygon fill="blue" stroke="black" points="62.98,-119.22 54.15,-113.36 57.4,-123.45 62.98,-119.22"/>
</g>
<!-- tradility_cli&#45;&gt;tradility___main__ -->
<g id="edge3" class="edge">
<title>tradility_cli&#45;&gt;tradility___main__</title><style>.edge>path:hover{stroke-width:8}</style>
<path fill="none" stroke="black" d="M41.01,-76.83C41.01,-69.6 41.01,-60.96 41.01,-52.67"/>
<polygon fill="#b83d3d" stroke="black" points="44.51,-52.9 41.01,-42.9 37.51,-52.9 44.51,-52.9"/>
</g>
<!-- tradility_fetch -->
<g id="node5" class="node">
<title>tradility_fetch</title><style>.edge>path:hover{stroke-width:8}</style>
<ellipse fill="#ce3b3b" stroke="black" cx="145.01" cy="-241.52" rx="35.18" ry="20.51"/>
<text xml:space="preserve" text-anchor="middle" x="145.01" y="-242.52" font-family="Helvetica,sans-Serif" font-size="10.00" fill="#ffffff">tradility.</text>
<text xml:space="preserve" text-anchor="middle" x="145.01" y="-232.02" font-family="Helvetica,sans-Serif" font-size="10.00" fill="#ffffff">fetch</text>
</g>
<!-- tradility_fetch&#45;&gt;tradility -->
<g id="edge4" class="edge">
<title>tradility_fetch&#45;&gt;tradility</title><style>.edge>path:hover{stroke-width:8}</style>
<path fill="none" stroke="black" d="M141.83,-220.88C138.81,-202.34 134.15,-173.78 130.01,-149.01 128.69,-141.06 127.23,-132.45 125.88,-124.52"/>
<polygon fill="#ce3b3b" stroke="black" points="129.34,-123.96 124.21,-114.69 122.44,-125.13 129.34,-123.96"/>
</g>
<!-- tradility_fetch&#45;&gt;tradility_analyze -->
<g id="edge5" class="edge">
<title>tradility_fetch&#45;&gt;tradility_analyze</title><style>.edge>path:hover{stroke-width:8}</style>
<path fill="none" stroke="black" d="M132.14,-222.22C126.19,-213.75 119,-203.53 112.48,-194.26"/>
<polygon fill="#ce3b3b" stroke="black" points="115.49,-192.46 106.87,-186.3 109.76,-196.49 115.49,-192.46"/>
</g>
<!-- tradility_indicators -->
<g id="node6" class="node">
<title>tradility_indicators</title><style>.edge>path:hover{stroke-width:8}</style>
<ellipse fill="#ce3b3b" stroke="black" cx="46.01" cy="-241.52" rx="41.54" ry="20.51"/>
<text xml:space="preserve" text-anchor="middle" x="46.01" y="-242.52" font-family="Helvetica,sans-Serif" font-size="10.00" fill="#ffffff">tradility.</text>
<text xml:space="preserve" text-anchor="middle" x="46.01" y="-232.02" font-family="Helvetica,sans-Serif" font-size="10.00" fill="#ffffff">indicators</text>
</g>
<!-- tradility_indicators&#45;&gt;tradility -->
<g id="edge6" class="edge">
<title>tradility_indicators&#45;&gt;tradility</title><style>.edge>path:hover{stroke-width:8}</style>
<path fill="none" stroke="black" d="M44.61,-220.69C44.11,-201.25 45.78,-171.36 58.01,-149.01 64.38,-137.38 74.41,-127.21 84.62,-118.98"/>
<polygon fill="#ce3b3b" stroke="black" points="86.45,-121.98 92.33,-113.17 82.24,-116.39 86.45,-121.98"/>
</g>
<!-- tradility_indicators&#45;&gt;tradility_analyze -->
<g id="edge7" class="edge">
<title>tradility_indicators&#45;&gt;tradility_analyze</title><style>.edge>path:hover{stroke-width:8}</style>
<path fill="none" stroke="black" d="M58.37,-221.85C63.84,-213.59 70.37,-203.72 76.34,-194.71"/>
<polygon fill="#ce3b3b" stroke="black" points="79.08,-196.91 81.68,-186.64 73.24,-193.04 79.08,-196.91"/>
</g>
</g>
</svg>
