<?plantuml 1.2026.2?><svg xmlns="http://www.w3.org/2000/svg" xmlns:xlink="http://www.w3.org/1999/xlink" contentStyleType="text/css" data-diagram-type="DESCRIPTION" height="472px" preserveAspectRatio="none" style="width:713px;height:472px;background:#FFFFFF;" version="1.1" viewBox="0 0 713 472" width="713px" zoomAndPan="magnify"><defs/><g><!--cluster tradility--><g class="cluster" data-qualified-name="tradility" data-source-line="3" id="ent0002"><path d="M53.9729,6.602 L109.2402,6.602 A3.75,3.75 0 0 1 111.7402,9.102 L118.7402,31.6699 L304.9729,31.6699 A2.5,2.5 0 0 1 307.4729,34.1699 L307.4729,337.802 A2.5,2.5 0 0 1 304.9729,340.302 L53.9729,340.302 A2.5,2.5 0 0 1 51.4729,337.802 L51.4729,9.102 A2.5,2.5 0 0 1 53.9729,6.602" fill="none" style="stroke:#000000;stroke-width:1.5;"/><line style="stroke:#000000;stroke-width:1.5;" x1="51.4729" x2="118.7402" y1="31.6699" y2="31.6699"/><text fill="#000000" font-family="sans-serif" font-size="14" font-weight="bold" lengthAdjust="spacing" textLength="54.2673" x="55.4729" y="23.5679">tradility</text></g><!--entity CLI--><g class="entity" data-qualified-name="tradility.CLI" data-source-line="4" id="ent0003"><rect fill="#F1F1F1" height="39.0679" rx="2.5" ry="2.5" style="stroke:#181818;stroke-width:0.5;" width="53.4459" x="163.7429" y="44.602"/><text fill="#000000" font-family="sans-serif" font-size="14" lengthAdjust="spacing" textLength="33.4459" x="173.7429" y="69.5679">cli.py</text></g><!--entity Analyze--><g class="entity" data-qualified-name="tradility.Analyze" data-source-line="5" id="ent0004"><rect fill="#F1F1F1" height="39.0679" rx="2.5" ry="2.5" style="stroke:#181818;stroke-width:0.5;" width="89.0897" x="175.9229" y="162.672"/><text fill="#000000" font-family="sans-serif" font-size="14" lengthAdjust="spacing" textLength="69.0897" x="185.9229" y="187.6379">analyze.py</text></g><!--entity Fetch--><g class="entity" data-qualified-name="tradility.Fetch" data-source-line="6" id="ent0005"><rect fill="#F1F1F1" height="39.0679" rx="2.5" ry="2.5" style="stroke:#181818;stroke-width:0.5;" width="72.6398" x="67.1529" y="285.232"/><text fill="#000000" font-family="sans-serif" font-size="14" lengthAdjust="spacing" textLength="52.6398" x="77.1529" y="310.1979">fetch.py</text></g><!--entity Indicators--><g class="entity" data-qualified-name="tradility.Indicators" data-source-line="7" id="ent0006"><rect fill="#F1F1F1" height="39.0679" rx="2.5" ry="2.5" style="stroke:#181818;stroke-width:0.5;" width="104.5737" x="175.1829" y="285.232"/><text fill="#000000" font-family="sans-serif" font-size="14" lengthAdjust="spacing" textLength="84.5737" x="185.1829" y="310.1979">indicators.py</text></g><!--entity Holdings--><g class="entity" data-qualified-name="Holdings" data-source-line="10" id="ent0007"><path d="M323.0729,290.732 C323.0729,280.732 413.4676,280.732 413.4676,280.732 C413.4676,280.732 503.8623,280.732 503.8623,290.732 L503.8623,318.7999 C503.8623,328.7999 413.4676,328.7999 413.4676,328.7999 C413.4676,328.7999 323.0729,328.7999 323.0729,318.7999 L323.0729,290.732" fill="#F1F1F1" style="stroke:#181818;stroke-width:0.5;"/><path d="M323.0729,290.732 C323.0729,300.732 413.4676,300.732 413.4676,300.732 C413.4676,300.732 503.8623,300.732 503.8623,290.732" fill="none" style="stroke:#181818;stroke-width:0.5;"/><text fill="#000000" font-family="sans-serif" font-size="14" lengthAdjust="spacing" textLength="160.7894" x="333.0729" y="319.6979">holdings-aggregate.json</text></g><!--entity Output--><g class="entity" data-qualified-name="Output" data-source-line="11" id="ent0008"><path d="M538.3829,290.732 C538.3829,280.732 617.4656,280.732 617.4656,280.732 C617.4656,280.732 696.5484,280.732 696.5484,290.732 L696.5484,318.7999 C696.5484,328.7999 617.4656,328.7999 617.4656,328.7999 C617.4656,328.7999 538.3829,328.7999 538.3829,318.7999 L538.3829,290.732" fill="#F1F1F1" style="stroke:#181818;stroke-width:0.5;"/><path d="M538.3829,290.732 C538.3829,300.732 617.4656,300.732 617.4656,300.732 C617.4656,300.732 696.5484,300.732 696.5484,290.732" fill="none" style="stroke:#181818;stroke-width:0.5;"/><text fill="#000000" font-family="sans-serif" font-size="14" lengthAdjust="spacing" textLength="138.1655" x="548.3829" y="319.6979">tradility-analysis.json</text></g><!--entity YF--><g class="entity" data-qualified-name="YF" data-source-line="12" id="ent0009"><path d="M14.8775,417.7987 C19.4193,409.7397 24.9377,411.701 29.6845,417.5811 C31.4812,411.5988 36.575,410.3614 40.4327,415.6085 C44.1087,409.9179 49.536,409.1847 52.7947,416.0204 C57.4927,408.8049 62.1382,408.8897 66.6783,416.1716 C70.9749,410.6191 75.423,409.6929 79.2975,416.5991 C82.9398,410.6998 86.7934,410.1261 91.961,414.7664 C96.552,408.7347 100.2768,409.6626 103.8526,415.7616 C107.2872,410.5023 113.2306,409.2828 116.7147,415.7072 C120.2014,409.8676 124.5399,408.7689 128.9134,414.7954 C133.1715,407.9367 139.3328,408.9879 142.9698,415.4507 C146.7105,409.3692 152.0283,410.812 155.2962,415.9693 C159.5436,410.5581 165.562,409.9901 168.5484,417.2845 C171.1198,411.3858 176.6107,409.9392 180.6626,415.7533 C186.1866,409.296 190.5199,410.6984 194.0491,417.7325 C201.507,421.1052 202.4117,429.2785 195.9066,434.2239 C203.3938,440.5378 201.9844,446.567 193.2407,450.1668 C189.6444,455.3951 185.2027,456.7839 180.8685,450.9955 C177.6405,458.0638 172.4055,458.9639 167.6825,452.4465 C164.21,458.2785 158.765,458.9223 154.4001,453.4998 C152.0853,460.134 147.4218,462.8673 141.6311,457.07 C138.1668,463.164 134.6669,464.372 129.7608,458.5003 C125.8266,464.9108 121.362,465.6584 116.462,459.5241 C113.8196,465.5232 108.083,464.7156 104.8572,460.1659 C100.4309,465.8777 95.7997,465.8264 92.7929,458.8194 C87.7596,464.2904 81.8041,464.7418 78.5344,456.9267 C74.5908,462.0519 71.0415,461.3185 67.6016,456.3796 C61.8545,463.523 57.0938,461.9127 53.0637,454.6472 C48.2403,460.659 44.4458,458.7018 40.8946,453.2918 C36.4709,459.0047 32.5498,457.1542 29.4062,451.9453 C24.1439,457.7803 18.8636,456.3492 15.9714,449.4458 C6,445.4444 6.6893,438.6624 13.8108,432.4838 C6.8472,426.9831 7.4077,422.2511 14.8775,417.7987" fill="#F1F1F1" style="stroke:#181818;stroke-width:0.5;"/><text fill="#000000" font-family="sans-serif" font-size="14" lengthAdjust="spacing" textLength="163.4913" x="21.7229" y="437.7679">yfinance / Yahoo Finance</text></g><!--link CLI to Analyze--><g class="link" data-entity-1="ent0003" data-entity-2="ent0004" data-link-type="dependency" data-source-line="14" id="lnk10"><path d="M195.3529,84.042 C200.9329,105.622 208.5008,134.913 214.0808,156.493" fill="none" id="CLI-to-Analyze" style="stroke:#181818;stroke-width:1;"/><polygon fill="#181818" points="215.5829,162.302,217.2025,152.5872,214.3312,157.4612,209.4572,154.5899,215.5829,162.302" style="stroke:#181818;stroke-width:1;"/><text fill="#000000" font-family="sans-serif" font-size="13" lengthAdjust="spacing" textLength="99.7751" x="208.2629" y="128.569">analyze_tickers()</text></g><!--link Analyze to Holdings--><g class="link" data-entity-1="ent0004" data-entity-2="ent0007" data-link-type="dependency" data-source-line="15" id="lnk11"><path d="M253.8129,202.192 C269.0629,211.002 287.2929,221.722 303.4729,231.732 C328.8929,247.482 352.1095,262.6454 373.5895,276.9554" fill="none" id="Analyze-to-Holdings" style="stroke:#181818;stroke-width:1;"/><polygon fill="#181818" points="378.5829,280.282,373.3105,271.9632,374.4217,277.5098,368.8751,278.621,378.5829,280.282" style="stroke:#181818;stroke-width:1;"/><text fill="#000000" font-family="sans-serif" font-size="13" lengthAdjust="spacing" textLength="70.0441" x="331.9129" y="246.629">load tickers</text></g><!--link Analyze to Fetch--><g class="link" data-entity-1="ent0004" data-entity-2="ent0005" data-link-type="dependency" data-source-line="16" id="lnk12"><path d="M177.2729,202.052 C163.2629,209.732 148.5129,219.672 137.4729,231.732 C123.4629,247.032 116.1055,263.455 110.8355,279.125" fill="none" id="Analyze-to-Fetch" style="stroke:#181818;stroke-width:1;"/><polygon fill="#181818" points="108.9229,284.812,115.5831,277.5566,110.5167,280.0728,108.0004,275.0064,108.9229,284.812" style="stroke:#181818;stroke-width:1;"/><text fill="#000000" font-family="sans-serif" font-size="13" lengthAdjust="spacing" textLength="76.4401" x="138.4729" y="246.629">fetch_ohlcv()</text></g><!--link Fetch to YF--><g class="link" data-entity-1="ent0005" data-entity-2="ent0009" data-link-type="dependency" data-source-line="17" id="lnk13"><path d="M103.4729,324.572 C103.4729,346.732 103.4729,377.602 103.4729,401.692" fill="none" id="Fetch-to-YF" style="stroke:#181818;stroke-width:1;"/><polygon fill="#181818" points="103.4729,407.692,107.4729,398.692,103.4729,402.692,99.4729,398.692,103.4729,407.692" style="stroke:#181818;stroke-width:1;"/><text fill="#000000" font-family="sans-serif" font-size="13" lengthAdjust="spacing" textLength="31.954" x="104.4729" y="373.699">HTTP</text></g><!--link Analyze to Indicators--><g class="link" data-entity-1="ent0004" data-entity-2="ent0006" data-link-type="dependency" data-source-line="18" id="lnk14"><path d="M221.5629,202.042 C222.8729,224.692 224.7255,256.482 226.0355,279.072" fill="none" id="Analyze-to-Indicators" style="stroke:#181818;stroke-width:1;"/><polygon fill="#181818" points="226.3829,285.062,229.8551,275.8455,226.0934,280.0704,221.8685,276.3086,226.3829,285.062" style="stroke:#181818;stroke-width:1;"/><text fill="#000000" font-family="sans-serif" font-size="13" lengthAdjust="spacing" textLength="69.5241" x="225.3829" y="246.629">rsi(), vwap()</text></g><!--link Analyze to Output--><g class="link" data-entity-1="ent0004" data-entity-2="ent0008" data-link-type="dependency" data-source-line="19" id="lnk15"><path d="M265.2929,193.522 C303.9829,202.692 361.2429,216.912 410.4729,231.732 C459.2929,246.442 508.0837,263.4326 548.8637,278.2526" fill="none" id="Analyze-to-Output" style="stroke:#181818;stroke-width:1;"/><polygon fill="#181818" points="554.5029,280.302,547.4104,273.4685,549.8036,278.5942,544.6779,280.9874,554.5029,280.302" style="stroke:#181818;stroke-width:1;"/><text fill="#000000" font-family="sans-serif" font-size="13" lengthAdjust="spacing" textLength="65.065" x="468.8129" y="246.629">write JSON</text></g><?plantuml-src NP1FImCn4CNl-HJ3dbfmwzs38CBIYbYXlImYPKpItRXf4fBPbbNyxYRxfxKUvxtV9EzDQ9HnwF40t1wSDTBGXZejmKjEQ2ej6NF86wmaPEHHAAseo-2R0RnnhHQkUmSCyFYyIWeQrDsNdDI7OKpENXAl9xr8GrAL4OeZMHycQtLMs0zZ0Wa_CCI_Qwk5CbN8iQgyh93auZDOawMTvUZzmSzHypvIKE62hrjoBJ6kRIiWw_RAeE4IRg74sbeeXhb7ouAnM0to_7ug0tSmjjoHuetqOJPdavUuAKq4jKK18tN5z0U8G7-LdQqrFyPN1ZNvPH7DvNRxUhLrkKrqVL2p-GqSJ-Z-1HZwHUJa5KbusgnVs2y0?></g></svg>
